<svg width="20" height="20" viewBox="0 0 20 20" fill="none" xmlns="http://www.w3.org/2000/svg">
<path d="M2 1.66056C1.53976 1.66056 1.16667 2.03366 1.16667 2.4939C1.16667 2.95413 1.53976 3.32723 2 3.32723V1.66056ZM3.91045 2.4939L4.7148 2.27605C4.61642 1.9128 4.28679 1.66056 3.91045 1.66056V2.4939ZM7.01493 13.9566L6.21057 14.1744C6.31913 14.5753 6.70623 14.835 7.11829 14.7835L7.01493 13.9566ZM16.5672 12.7626L16.6705 13.5895C17.0244 13.5452 17.311 13.2807 17.3832 12.9314L16.5672 12.7626ZM18 5.83718L18.8161 6.00602C18.8668 5.76059 18.8045 5.50534 18.6462 5.31099C18.4879 5.11665 18.2506 5.00385 18 5.00385V5.83718ZM4.81592 5.83718L4.01156 6.05503L4.81592 5.83718ZM2 3.32723H3.91045V1.66056H2V3.32723ZM7.11829 14.7835L16.6705 13.5895L16.4638 11.9357L6.91156 13.1297L7.11829 14.7835ZM17.3832 12.9314L18.8161 6.00602L17.184 5.66834L15.7511 12.5937L17.3832 12.9314ZM3.10609 2.71174L4.01156 6.05503L5.62028 5.61934L4.7148 2.27605L3.10609 2.71174ZM4.01156 6.05503L6.21057 14.1744L7.81928 13.7387L5.62028 5.61934L4.01156 6.05503ZM18 5.00385H4.81592V6.67052H18V5.00385ZM9.16667 17.0833C9.16667 17.3134 8.98012 17.5 8.75 17.5V19.1666C9.9006 19.1666 10.8333 18.2339 10.8333 17.0833H9.16667ZM8.75 17.5C8.51988 17.5 8.33333 17.3134 8.33333 17.0833H6.66667C6.66667 18.2339 7.59941 19.1666 8.75 19.1666V17.5ZM8.33333 17.0833C8.33333 16.8532 8.51988 16.6666 8.75 16.6666V15C7.59941 15 6.66667 15.9327 6.66667 17.0833H8.33333ZM8.75 16.6666C8.98012 16.6666 9.16667 16.8532 9.16667 17.0833H10.8333C10.8333 15.9327 9.9006 15 8.75 15V16.6666ZM15.8333 17.0833C15.8333 17.3134 15.6468 17.5 15.4167 17.5V19.1666C16.5673 19.1666 17.5 18.2339 17.5 17.0833H15.8333ZM15.4167 17.5C15.1866 17.5 15 17.3134 15 17.0833H13.3333C13.3333 18.2339 14.2661 19.1666 15.4167 19.1666V17.5ZM15 17.0833C15 16.8532 15.1866 16.6666 15.4167 16.6666V15C14.2661 15 13.3333 15.9327 13.3333 17.0833H15ZM15.4167 16.6666C15.6468 16.6666 15.8333 16.8532 15.8333 17.0833H17.5C17.5 15.9327 16.5673 15 15.4167 15V16.6666Z" fill="#3B944E"/>
</svg>
