<svg width="18" height="18" viewBox="0 0 18 18" fill="none" xmlns="http://www.w3.org/2000/svg">
<path d="M0.833374 -8.14795e-05C0.373137 -8.14795e-05 4.05908e-05 0.373015 4.05908e-05 0.833252C4.05908e-05 1.29349 0.373137 1.66659 0.833374 1.66659V-8.14795e-05ZM2.74382 0.833252L3.54818 0.615406C3.4498 0.252154 3.12016 -8.14795e-05 2.74382 -8.14795e-05V0.833252ZM5.8483 12.2959L5.04394 12.5138C5.1525 12.9146 5.5396 13.1743 5.95166 13.1228L5.8483 12.2959ZM15.4005 11.1019L15.5039 11.9288C15.8578 11.8846 16.1443 11.62 16.2166 11.2708L15.4005 11.1019ZM16.8334 4.17654L17.6494 4.34538C17.7002 4.09995 17.6378 3.8447 17.4796 3.65035C17.3213 3.456 17.084 3.3432 16.8334 3.3432V4.17654ZM3.64929 4.17654L2.84494 4.39438L3.64929 4.17654ZM0.833374 1.66659H2.74382V-8.14795e-05H0.833374V1.66659ZM5.95166 13.1228L15.5039 11.9288L15.2972 10.275L5.74494 11.469L5.95166 13.1228ZM16.2166 11.2708L17.6494 4.34538L16.0173 4.0077L14.5845 10.9331L16.2166 11.2708ZM1.93947 1.0511L2.84494 4.39438L4.45365 3.95869L3.54818 0.615406L1.93947 1.0511ZM2.84494 4.39438L5.04394 12.5138L6.65266 12.0781L4.45365 3.95869L2.84494 4.39438ZM16.8334 3.3432H3.64929V5.00987H16.8334V3.3432ZM8.00004 15.4226C8.00004 15.6528 7.81349 15.8393 7.58338 15.8393V17.506C8.73397 17.506 9.66671 16.5732 9.66671 15.4226H8.00004ZM7.58338 15.8393C7.35326 15.8393 7.16671 15.6528 7.16671 15.4226H5.50004C5.50004 16.5732 6.43278 17.506 7.58338 17.506V15.8393ZM7.16671 15.4226C7.16671 15.1925 7.35326 15.006 7.58338 15.006V13.3393C6.43278 13.3393 5.50004 14.2721 5.50004 15.4226H7.16671ZM7.58338 15.006C7.81349 15.006 8.00004 15.1925 8.00004 15.4226H9.66671C9.66671 14.2721 8.73397 13.3393 7.58338 13.3393V15.006ZM14.6667 15.4226C14.6667 15.6528 14.4802 15.8393 14.25 15.8393V17.506C15.4006 17.506 16.3334 16.5732 16.3334 15.4226H14.6667ZM14.25 15.8393C14.0199 15.8393 13.8334 15.6528 13.8334 15.4226H12.1667C12.1667 16.5732 13.0995 17.506 14.25 17.506V15.8393ZM13.8334 15.4226C13.8334 15.1925 14.0199 15.006 14.25 15.006V13.3393C13.0995 13.3393 12.1667 14.2721 12.1667 15.4226H13.8334ZM14.25 15.006C14.4802 15.006 14.6667 15.1925 14.6667 15.4226H16.3334C16.3334 14.2721 15.4006 13.3393 14.25 13.3393V15.006Z" fill="white"/>
</svg>
